# xmcd CD database file
#
# Track frame offsets:
#	150
#	22140
#	41145
#	60447
#
# Disc length: 1058 seconds
#
# Revision: 0
# Processed by: cddbd v1.5.1PL0 Copyright (c) Steve Scherf et al.
# Submitted via: CDex 1.51
#
DISCID=30042004
DTITLE=そのざきみえ - SEES of WILL
DYEAR=2001
DGENRE=Vocal
TTITLE0=SEES of WILL [Sublimation Mix]
TTITLE1=SEES of WILL [Pray Ver.? 〜Instrumental]
TTITLE2=SEES of WILL [Generation of Beat Mix]
TTITLE3=SEES of WILL [Pray Ver.?]
EXTD=YEAR: 2001
EXTT0=
EXTT1=
EXTT2=
EXTT3=
PLAYORDER=
